{
	"asset":{
		"generator":"Khronos glTF Blender I/O v4.0.44",
		"version":"2.0"
	},
	"extensionsUsed":[
		"KHR_materials_specular",
		"KHR_materials_ior"
	],
	"scene":0,
	"scenes":[
		{
			"name":"Scene",
			"nodes":[
				0
			]
		}
	],
	"nodes":[
		{
			"mesh":0,
			"name":"david"
		}
	],
	"materials":[
		{
			"doubleSided":true,
			"extensions":{
				"KHR_materials_specular":{
					"specularFactor":0
				},
				"KHR_materials_ior":{
					"ior":0
				}
			},
			"name":"frente",
			"pbrMetallicRoughness":{
				"baseColorTexture":{
					"index":0
				},
				"metallicFactor":0,
				"roughnessFactor":0.5
			}
		},
		{
			"doubleSided":true,
			"extensions":{
				"KHR_materials_specular":{
					"specularFactor":0
				},
				"KHR_materials_ior":{
					"ior":0
				}
			},
			"name":"trasera",
			"pbrMetallicRoughness":{
				"baseColorFactor":[
					0.4290534257888794,
					0.3102971911430359,
					0.11485721170902252,
					1
				],
				"metallicFactor":0,
				"roughnessFactor":0.5
			}
		},
		{
			"doubleSided":true,
			"extensions":{
				"KHR_materials_specular":{
					"specularFactor":0
				},
				"KHR_materials_ior":{
					"ior":0
				}
			},
			"name":"perfil",
			"pbrMetallicRoughness":{
				"baseColorTexture":{
					"index":1
				},
				"metallicFactor":0,
				"roughnessFactor":0.5
			}
		}
	],
	"meshes":[
		{
			"name":"paula",
			"primitives":[
				{
					"attributes":{
						"POSITION":0,
						"NORMAL":1,
						"TEXCOORD_0":2
					},
					"indices":3,
					"material":0
				},
				{
					"attributes":{
						"POSITION":4,
						"NORMAL":5,
						"TEXCOORD_0":6
					},
					"indices":7,
					"material":1
				},
				{
					"attributes":{
						"POSITION":8,
						"NORMAL":9,
						"TEXCOORD_0":10
					},
					"indices":11,
					"material":2
				}
			]
		}
	],
	"textures":[
		{
			"sampler":0,
			"source":0
		},
		{
			"sampler":0,
			"source":1
		}
	],
	"images":[
		{
			"mimeType":"image/jpeg",
			"name":"3",
			"uri":"3.jpg"
		},
		{
			"mimeType":"image/png",
			"name":"TQ3_ARD-I1",
			"uri":"TQ3_ARD-I1.png"
		}
	],
	"accessors":[
		{
			"bufferView":0,
			"componentType":5126,
			"count":289,
			"max":[
				0.12056674063205719,
				0.26435279846191406,
				0.19487157464027405
			],
			"min":[
				-0.12071378529071808,
				0.0017124381847679615,
				-0.2064090371131897
			],
			"type":"VEC3"
		},
		{
			"bufferView":1,
			"componentType":5126,
			"count":289,
			"type":"VEC3"
		},
		{
			"bufferView":2,
			"componentType":5126,
			"count":289,
			"type":"VEC2"
		},
		{
			"bufferView":3,
			"componentType":5123,
			"count":1179,
			"type":"SCALAR"
		},
		{
			"bufferView":4,
			"componentType":5126,
			"count":315,
			"max":[
				0.11848153918981552,
				0.26435279846191406,
				0.19290584325790405
			],
			"min":[
				-0.118628591299057,
				0.003329630708321929,
				-0.20432382822036743
			],
			"type":"VEC3"
		},
		{
			"bufferView":5,
			"componentType":5126,
			"count":315,
			"type":"VEC3"
		},
		{
			"bufferView":6,
			"componentType":5126,
			"count":315,
			"type":"VEC2"
		},
		{
			"bufferView":7,
			"componentType":5123,
			"count":1167,
			"type":"SCALAR"
		},
		{
			"bufferView":8,
			"componentType":5126,
			"count":376,
			"max":[
				0.12056674063205719,
				0.26435279846191406,
				0.19487154483795166
			],
			"min":[
				-0.12071378529071808,
				0.0017124658916145563,
				-0.2064090371131897
			],
			"type":"VEC3"
		},
		{
			"bufferView":9,
			"componentType":5126,
			"count":376,
			"type":"VEC3"
		},
		{
			"bufferView":10,
			"componentType":5126,
			"count":376,
			"type":"VEC2"
		},
		{
			"bufferView":11,
			"componentType":5123,
			"count":750,
			"type":"SCALAR"
		}
	],
	"bufferViews":[
		{
			"buffer":0,
			"byteLength":3468,
			"byteOffset":0,
			"target":34962
		},
		{
			"buffer":0,
			"byteLength":3468,
			"byteOffset":3468,
			"target":34962
		},
		{
			"buffer":0,
			"byteLength":2312,
			"byteOffset":6936,
			"target":34962
		},
		{
			"buffer":0,
			"byteLength":2358,
			"byteOffset":9248,
			"target":34963
		},
		{
			"buffer":0,
			"byteLength":3780,
			"byteOffset":11608,
			"target":34962
		},
		{
			"buffer":0,
			"byteLength":3780,
			"byteOffset":15388,
			"target":34962
		},
		{
			"buffer":0,
			"byteLength":2520,
			"byteOffset":19168,
			"target":34962
		},
		{
			"buffer":0,
			"byteLength":2334,
			"byteOffset":21688,
			"target":34963
		},
		{
			"buffer":0,
			"byteLength":4512,
			"byteOffset":24024,
			"target":34962
		},
		{
			"buffer":0,
			"byteLength":4512,
			"byteOffset":28536,
			"target":34962
		},
		{
			"buffer":0,
			"byteLength":3008,
			"byteOffset":33048,
			"target":34962
		},
		{
			"buffer":0,
			"byteLength":1500,
			"byteOffset":36056,
			"target":34963
		}
	],
	"samplers":[
		{
			"magFilter":9729,
			"minFilter":9987
		}
	],
	"buffers":[
		{
			"byteLength":37556,
			"uri":"5D%20FUENSANTICA%20GLTF.bin"
		}
	]
}
