{
	"asset":{
		"generator":"Khronos glTF Blender I/O v3.6.27",
		"version":"2.0"
	},
	"extensionsUsed":[
		"KHR_materials_specular",
		"KHR_materials_ior"
	],
	"scene":0,
	"scenes":[
		{
			"name":"Scene",
			"nodes":[
				0
			]
		}
	],
	"nodes":[
		{
			"mesh":0,
			"name":"TQ_ARD-node",
			"translation":[
				0,
				0.04937175661325455,
				0
			]
		}
	],
	"materials":[
		{
			"doubleSided":true,
			"extensions":{
				"KHR_materials_specular":{
					"specularColorFactor":[
						0,
						0,
						0
					]
				},
				"KHR_materials_ior":{
					"ior":0
				}
			},
			"name":"TQ_ARD_front",
			"pbrMetallicRoughness":{
				"baseColorTexture":{
					"index":0
				},
				"metallicFactor":0,
				"roughnessFactor":0.5
			}
		},
		{
			"doubleSided":true,
			"extensions":{
				"KHR_materials_specular":{
					"specularColorFactor":[
						0,
						0,
						0
					]
				},
				"KHR_materials_ior":{
					"ior":0
				}
			},
			"name":"TQ_ARD_back",
			"pbrMetallicRoughness":{
				"baseColorTexture":{
					"index":1
				},
				"metallicFactor":0,
				"roughnessFactor":0.5
			}
		},
		{
			"doubleSided":true,
			"extensions":{
				"KHR_materials_specular":{
					"specularColorFactor":[
						0,
						0,
						0
					]
				},
				"KHR_materials_ior":{
					"ior":0
				}
			},
			"name":"TQ_ARD_edge",
			"pbrMetallicRoughness":{
				"baseColorTexture":{
					"index":2
				},
				"metallicFactor":0,
				"roughnessFactor":0.5
			}
		}
	],
	"meshes":[
		{
			"name":"TQ_ARD-geom",
			"primitives":[
				{
					"attributes":{
						"POSITION":0,
						"NORMAL":1,
						"TEXCOORD_0":2
					},
					"indices":3,
					"material":0
				},
				{
					"attributes":{
						"POSITION":4,
						"NORMAL":5,
						"TEXCOORD_0":6
					},
					"indices":7,
					"material":1
				},
				{
					"attributes":{
						"POSITION":8,
						"NORMAL":9,
						"TEXCOORD_0":10
					},
					"indices":11,
					"material":2
				}
			]
		}
	],
	"textures":[
		{
			"sampler":0,
			"source":0
		},
		{
			"sampler":0,
			"source":1
		},
		{
			"sampler":0,
			"source":2
		}
	],
	"images":[
		{
			"bufferView":4,
			"mimeType":"image/jpeg",
			"name":"1"
		},
		{
			"bufferView":9,
			"mimeType":"image/png",
			"name":"TQ_ARD-I2"
		},
		{
			"bufferView":14,
			"mimeType":"image/png",
			"name":"TQ_ARD-I1.png"
		}
	],
	"accessors":[
		{
			"bufferView":0,
			"componentType":5126,
			"count":1041,
			"max":[
				0.29193657636642456,
				0.05780501663684845,
				0.20021896064281464
			],
			"min":[
				-0.2912667989730835,
				-0.04580149054527283,
				-0.1443876475095749
			],
			"type":"VEC3"
		},
		{
			"bufferView":1,
			"componentType":5126,
			"count":1041,
			"type":"VEC3"
		},
		{
			"bufferView":2,
			"componentType":5126,
			"count":1041,
			"type":"VEC2"
		},
		{
			"bufferView":3,
			"componentType":5123,
			"count":3342,
			"type":"SCALAR"
		},
		{
			"bufferView":5,
			"componentType":5126,
			"count":1049,
			"max":[
				0.28929829597473145,
				0.056178025901317596,
				0.20021896064281464
			],
			"min":[
				-0.28862854838371277,
				-0.04580148681998253,
				-0.14203883707523346
			],
			"type":"VEC3"
		},
		{
			"bufferView":6,
			"componentType":5126,
			"count":1049,
			"type":"VEC3"
		},
		{
			"bufferView":7,
			"componentType":5126,
			"count":1049,
			"type":"VEC2"
		},
		{
			"bufferView":8,
			"componentType":5123,
			"count":3342,
			"type":"SCALAR"
		},
		{
			"bufferView":10,
			"componentType":5126,
			"count":1855,
			"max":[
				0.29193657636642456,
				0.05780501663684845,
				0.20021896064281464
			],
			"min":[
				-0.2912667989730835,
				-0.04580149054527283,
				-0.1443876475095749
			],
			"type":"VEC3"
		},
		{
			"bufferView":11,
			"componentType":5126,
			"count":1855,
			"type":"VEC3"
		},
		{
			"bufferView":12,
			"componentType":5126,
			"count":1855,
			"type":"VEC2"
		},
		{
			"bufferView":13,
			"componentType":5123,
			"count":3936,
			"type":"SCALAR"
		}
	],
	"bufferViews":[
		{
			"buffer":0,
			"byteLength":12492,
			"byteOffset":0,
			"target":34962
		},
		{
			"buffer":0,
			"byteLength":12492,
			"byteOffset":12492,
			"target":34962
		},
		{
			"buffer":0,
			"byteLength":8328,
			"byteOffset":24984,
			"target":34962
		},
		{
			"buffer":0,
			"byteLength":6684,
			"byteOffset":33312,
			"target":34963
		},
		{
			"buffer":0,
			"byteLength":1216666,
			"byteOffset":39996
		},
		{
			"buffer":0,
			"byteLength":12588,
			"byteOffset":1256664,
			"target":34962
		},
		{
			"buffer":0,
			"byteLength":12588,
			"byteOffset":1269252,
			"target":34962
		},
		{
			"buffer":0,
			"byteLength":8392,
			"byteOffset":1281840,
			"target":34962
		},
		{
			"buffer":0,
			"byteLength":6684,
			"byteOffset":1290232,
			"target":34963
		},
		{
			"buffer":0,
			"byteLength":726177,
			"byteOffset":1296916
		},
		{
			"buffer":0,
			"byteLength":22260,
			"byteOffset":2023096,
			"target":34962
		},
		{
			"buffer":0,
			"byteLength":22260,
			"byteOffset":2045356,
			"target":34962
		},
		{
			"buffer":0,
			"byteLength":14840,
			"byteOffset":2067616,
			"target":34962
		},
		{
			"buffer":0,
			"byteLength":7872,
			"byteOffset":2082456,
			"target":34963
		},
		{
			"buffer":0,
			"byteLength":223603,
			"byteOffset":2090328
		}
	],
	"samplers":[
		{
			"magFilter":9729,
			"minFilter":9987
		}
	],
	"buffers":[
		{
			"byteLength":2313932,
			"uri":"data:application/octet-stream;base64,"
		}
	]
}
