{"extensionsUsed" : ["KHR_materials_specular", "KHR_materials_ior"], "accessors" : [{"bufferView" : 0, "byteOffset" : 0, "componentType" : 5123, "count" : 1179, "type" : "SCALAR", "max" : [994], "min" : [0]}, {"bufferView" : 1, "byteOffset" : 0, "componentType" : 5126, "count" : 995, "type" : "VEC3", "max" : [0.12056674063205719, 0.26435279846191406, 0.19487157464027405], "min" : [-0.12071378529071808, 0.0017124381847679615, -0.2064090371131897], "name" : "POSITION"}, {"bufferView" : 1, "byteOffset" : 12, "componentType" : 5126, "count" : 995, "type" : "VEC3", "max" : [1.0000044107437134, 0.05610165745019913, 1.0000044107437134], "min" : [-1.0000044107437134, -1.0000044107437134, -1.0000044107437134], "name" : "NORMAL"}, {"bufferView" : 1, "byteOffset" : 24, "componentType" : 5126, "count" : 995, "type" : "VEC2", "max" : [1, 1.006508469581604], "min" : [0, 0.3028455972671509], "name" : "TEXCOORD_0"}, {"bufferView" : 0, "byteOffset" : 2360, "componentType" : 5123, "count" : 1167, "type" : "SCALAR", "max" : [1009], "min" : [0]}, {"bufferView" : 2, "byteOffset" : 0, "componentType" : 5126, "count" : 1010, "type" : "VEC3", "max" : [0.11848153918981552, 0.26435279846191406, 0.19290584325790405], "min" : [-0.118628591299057, 0.003329630708321929, -0.20432382822036743], "name" : "POSITION"}, {"bufferView" : 2, "byteOffset" : 12, "componentType" : 5126, "count" : 1010, "type" : "VEC3", "max" : [1.0000044107437134, 1.0000044107437134, 1.0000044107437134], "min" : [-1.0000044107437134, -0.7071098685264587, -1.0000044107437134], "name" : "NORMAL"}, {"bufferView" : 2, "byteOffset" : 24, "componentType" : 5126, "count" : 1010, "type" : "VEC2", "max" : [1, 1], "min" : [0, 0], "name" : "TEXCOORD_0"}, {"bufferView" : 0, "byteOffset" : 4696, "componentType" : 5123, "count" : 750, "type" : "SCALAR", "max" : [748], "min" : [0]}, {"bufferView" : 3, "byteOffset" : 0, "componentType" : 5126, "count" : 749, "type" : "VEC3", "max" : [0.12056674063205719, 0.26435279846191406, 0.19487154483795166], "min" : [-0.12071378529071808, 0.0017124658916145563, -0.2064090371131897], "name" : "POSITION"}, {"bufferView" : 3, "byteOffset" : 12, "componentType" : 5126, "count" : 749, "type" : "VEC3", "max" : [1.0000044107437134, 1.0000044107437134, 1.0000044107437134], "min" : [-1.0000044107437134, -0.986363410949707, -1.0000044107437134], "name" : "NORMAL"}, {"bufferView" : 3, "byteOffset" : 24, "componentType" : 5126, "count" : 749, "type" : "VEC2", "max" : [112.66153717041016, 1], "min" : [-112.66153717041016, 0], "name" : "TEXCOORD_0"}], "asset" : {"generator" : "Aspose.3D 23.11.1", "version" : "2.0"}, "buffers" : [{"uri" : "data:application/octet-stream;base64,", "byteLength" : 105284}], "bufferViews" : [{"buffer" : 0, "byteOffset" : 0, "byteLength" : 6196, "target" : 34963}, {"buffer" : 0, "byteOffset" : 6200, "byteLength" : 37728, "byteStride" : 32, "target" : 34962}, {"buffer" : 0, "byteOffset" : 43932, "byteLength" : 37344, "byteStride" : 32, "target" : 34962}, {"buffer" : 0, "byteOffset" : 81280, "byteLength" : 24000, "byteStride" : 32, "target" : 34962}], "images" : [{"uri" : "data:image/jpeg;base64,"}, {"uri" : "data:image/png;base64,"}], "materials" : [{"name" : "frente", "extensions" : {"KHR_materials_specular" : {"specularFactor" : 0}, "KHR_materials_ior" : {"ior" : 0}}, "pbrMetallicRoughness" : {"baseColorFactor" : [1, 1, 1, 1], "baseColorTexture" : {"index" : 0, "texCoord" : 0}, "metallicFactor" : 0, "roughnessFactor" : 0.5}, "emissiveFactor" : [0, 0, 0], "alphaMode" : "OPAQUE", "doubleSided" : true}, {"name" : "trasera", "extensions" : {"KHR_materials_specular" : {"specularFactor" : 0}, "KHR_materials_ior" : {"ior" : 0}}, "pbrMetallicRoughness" : {"baseColorFactor" : [0.4290534257888794, 0.3102971911430359, 0.11485721170902252, 1], "metallicFactor" : 0, "roughnessFactor" : 0.5}, "emissiveFactor" : [0, 0, 0], "alphaMode" : "OPAQUE", "doubleSided" : true}, {"name" : "perfil", "extensions" : {"KHR_materials_specular" : {"specularFactor" : 0}, "KHR_materials_ior" : {"ior" : 0}}, "pbrMetallicRoughness" : {"baseColorFactor" : [1, 1, 1, 1], "baseColorTexture" : {"index" : 1, "texCoord" : 0}, "metallicFactor" : 0, "roughnessFactor" : 0.5}, "emissiveFactor" : [0, 0, 0], "alphaMode" : "OPAQUE", "doubleSided" : true}], "meshes" : [{"primitives" : [{"attributes" : {"POSITION" : 1, "NORMAL" : 2, "TEXCOORD_0" : 3}, "indices" : 0, "material" : 0, "mode" : 4}, {"attributes" : {"POSITION" : 5, "NORMAL" : 6, "TEXCOORD_0" : 7}, "indices" : 4, "material" : 1, "mode" : 4}, {"attributes" : {"POSITION" : 9, "NORMAL" : 10, "TEXCOORD_0" : 11}, "indices" : 8, "material" : 2, "mode" : 4}]}], "nodes" : [{"mesh" : 0, "name" : "david"}], "samplers" : [{"magFilter" : 9729, "minFilter" : 9987, "wrapS" : 10497, "wrapT" : 10497}, {"magFilter" : 9729, "minFilter" : 9987, "wrapS" : 10497, "wrapT" : 10497}], "scene" : 0, "scenes" : [{"nodes" : [0]}], "textures" : [{"sampler" : 0, "source" : 0, "name" : ""}, {"sampler" : 1, "source" : 1, "name" : ""}]}